{"asset":{"version":"2.0","generator":"VECTARY"},"scene":0,"nodes":[{"translation":[0.04378900096022248,-0.02055329085822861,0.009711622607748346],"scale":[0.00014201075317141676,0.00014201075317141676,0.00014201075317141676],"rotation":[-0.19127186695705037,-0.6238124780169113,-0.7404783802439296,0.16113607160561894],"name":"Fox 1","children":[1,2,3,4]},{"translation":[0,-83.0019989013672,435.0880126953126],"scale":[1,1,1],"rotation":[0.7071067811865475,0,0,0.7071067811865476],"name":"buffer-0-mesh-0","mesh":0},{"translation":[0,-83.0019989013672,435.0880126953126],"scale":[1,1,1],"rotation":[0.7071067811865475,0,0,0.7071067811865476],"name":"buffer-0-mesh-0","mesh":1},{"translation":[0,-292.92599487304693,547.0595130920412],"scale":[1,1,1],"rotation":[0.7071067811865475,0,0,0.7071067811865476],"name":"buffer-0-mesh-0","mesh":2},{"translation":[0,352.0860137939454,511.52366638183594],"scale":[1,1,1],"rotation":[0.7071067811865475,0,0,0.7071067811865476],"name":"buffer-0-mesh-0","mesh":3},{"translation":[-0.003759885114722863,0.022713307197688368,-0.059110197034153315],"scale":[0.001,0.001,0.001],"rotation":[-0.7071067811865475,0,0,0.7071067811865476],"name":"Group","children":[6,7,8,9]},{"translation":[-19.875383248214103,79.45676817768117,4.940918036651915],"scale":[0.9999999999999999,1,0.9999999999999999],"rotation":[0,0.03469452175782869,0,0.9993979638562386],"name":"Trunk","mesh":4},{"translation":[-10.480356355937348,61.09772094046389,0.02044955458268863],"scale":[0.9999999999999996,0.9999999999999996,1],"rotation":[0.0007328507952666052,-0.000034310633227869197,0.99890556545242,-0.046766794423750244],"name":"Tree","mesh":5},{"translation":[-0.5633340047250055,43.375170151258175,98.58445376107281],"scale":[3.05119849526524,3.05119849526524,2.912898001898228],"rotation":[0,0,-0.3075234569531679,0.951540500148876],"name":"Raven","mesh":6},{"translation":[-8.26409545513727,27.915614012372643,127.21359646804642],"scale":[37.50917212014193,37.50917212014194,7.943041059486448],"rotation":[0.611370291938014,0,0,0.7913446569830541],"name":"cheese","mesh":7},{"translation":[0,0,0],"scale":[0.001,0.001,0.001],"rotation":[-0.7071067811865475,0,0,0.7071067811865476],"name":"Object"},{"translation":[0.1057407156602029,-0.07082369339150674,-0.07451982219101957],"scale":[0.0032482407547270884,0.0032482407547270884,0.0032482407547270884],"rotation":[-0.4996663028080282,-0.5003334746328251,0.500333474632825,0.4996663028080283],"name":"Floating Island 2","mesh":8},{"translation":[-0.028652379109889253,-0.012445887363806186,-0.07944932831999307],"scale":[0.00019184346977443165,0.00019184346977443165,0.00019184346977443165],"rotation":[-0.7071067811865475,0,0,0.7071067811865476],"name":"Green mountain","mesh":9}],"materials":[{"pbrMetallicRoughness":{"baseColorFactor":[0.77,0.756566,0.7392,1],"metallicFactor":0,"roughnessFactor":0.9699476628648295},"name":"Material 1","emissiveFactor":[0,0,0],"alphaMode":"OPAQUE","doubleSided":true},{"pbrMetallicRoughness":{"baseColorFactor":[0.3803921568627451,0.2980392156862745,0.19215686274509805,1],"metallicFactor":0,"roughnessFactor":0.9699476628648295},"name":"Material 2","emissiveFactor":[0,0,0],"alphaMode":"OPAQUE","doubleSided":true},{"pbrMetallicRoughness":{"baseColorFactor":[0,0,0,1],"metallicFactor":0,"roughnessFactor":0.9699476628648295},"name":"Material 5","emissiveFactor":[0,0,0],"alphaMode":"OPAQUE","doubleSided":true},{"pbrMetallicRoughness":{"baseColorFactor":[1,0.5254901960784314,0.10980392156862745,1],"metallicFactor":0,"roughnessFactor":0.9699476628648295},"name":"Material 6","emissiveFactor":[0,0,0],"alphaMode":"OPAQUE","doubleSided":true},{"pbrMetallicRoughness":{"baseColorFactor":[0.25098039215686274,0.807843137254902,0.4823529411764706,1],"metallicFactor":0,"roughnessFactor":1},"name":"Material 11","emissiveFactor":[0,0,0],"alphaMode":"OPAQUE","doubleSided":false},{"pbrMetallicRoughness":{"baseColorFactor":[0.24313725490196078,0.24705882352941178,0.3176470588235294,1],"metallicFactor":0,"roughnessFactor":1},"name":"Material 3","emissiveFactor":[0,0,0],"alphaMode":"OPAQUE","doubleSided":false},{"pbrMetallicRoughness":{"baseColorFactor":[0.4666666666666667,0.3686274509803922,0.7098039215686275,1],"baseColorTexture":{"index":0},"metallicFactor":0,"roughnessFactor":0.9699476628648295},"name":"Material 7","emissiveFactor":[0,0,0],"alphaMode":"OPAQUE","doubleSided":true},{"pbrMetallicRoughness":{"baseColorFactor":[0.9098039215686274,0.8862745098039215,0.4549019607843137,1],"metallicFactor":0,"roughnessFactor":0.6},"name":"Material 8","emissiveFactor":[0,0,0],"alphaMode":"OPAQUE","doubleSided":false},{"pbrMetallicRoughness":{"baseColorFactor":[0.2196078431372549,0.47843137254901963,0.24705882352941178,1],"metallicFactor":0,"roughnessFactor":0.2},"name":"Object material","emissiveFactor":[0,0,0],"alphaMode":"OPAQUE","doubleSided":false},{"pbrMetallicRoughness":{"baseColorFactor":[1,1,1,1],"baseColorTexture":{"index":1},"metallicFactor":0,"roughnessFactor":0.7358395138449315},"name":"Material 4","emissiveFactor":[0,0,0],"alphaMode":"OPAQUE","doubleSided":true},{"pbrMetallicRoughness":{"baseColorFactor":[0.6470588235294118,0.9607843137254902,0.6431372549019608,1],"baseColorTexture":{"index":2},"metallicFactor":0,"roughnessFactor":0.9699476628648295},"name":"Material 9","emissiveFactor":[0,0,0],"alphaMode":"OPAQUE","doubleSided":true}],"meshes":[{"primitives":[{"mode":4,"attributes":{"POSITION":1,"NORMAL":2,"TEXCOORD_0":3},"material":0,"indices":0}]},{"primitives":[{"mode":4,"attributes":{"POSITION":5,"NORMAL":6,"TEXCOORD_0":7},"material":1,"indices":4}]},{"primitives":[{"mode":4,"attributes":{"POSITION":9,"NORMAL":10,"TEXCOORD_0":11},"material":2,"indices":8}]},{"primitives":[{"mode":4,"attributes":{"POSITION":13,"NORMAL":14,"TEXCOORD_0":15},"material":3,"indices":12}]},{"primitives":[{"mode":4,"attributes":{"POSITION":17,"NORMAL":18,"TEXCOORD_0":19},"material":4,"indices":16}]},{"primitives":[{"mode":4,"attributes":{"POSITION":21,"NORMAL":22,"TEXCOORD_0":23},"material":5,"indices":20}]},{"primitives":[{"mode":4,"attributes":{"POSITION":25,"NORMAL":26,"TEXCOORD_0":27},"material":6,"indices":24}]},{"primitives":[{"mode":4,"attributes":{"POSITION":29,"NORMAL":30},"material":7,"indices":28}]},{"primitives":[{"mode":4,"attributes":{"POSITION":32,"NORMAL":33,"TEXCOORD_0":34},"material":9,"indices":31}]},{"primitives":[{"mode":4,"attributes":{"POSITION":36,"NORMAL":37,"TEXCOORD_0":38},"material":10,"indices":35}]}],"accessors":[{"bufferView":0,"byteOffset":0,"componentType":5125,"count":456,"type":"SCALAR"},{"bufferView":1,"byteOffset":0,"componentType":5126,"count":456,"max":[45.99300003051758,197.7469940185547,261.5119934082031],"min":[-45.99300003051758,-17.253799438476562,-191.08200073242188],"type":"VEC3"},{"bufferView":2,"byteOffset":0,"componentType":5126,"count":456,"type":"VEC3"},{"bufferView":3,"byteOffset":0,"componentType":5126,"count":456,"type":"VEC2"},{"bufferView":4,"byteOffset":0,"componentType":5125,"count":1542,"type":"SCALAR"},{"bufferView":5,"byteOffset":0,"componentType":5126,"count":1542,"max":[59.9911003112793,201.6820068359375,200.16900634765625],"min":[-59.9911003112793,-191.7239990234375,-217.93299865722656],"type":"VEC3"},{"bufferView":6,"byteOffset":0,"componentType":5126,"count":1542,"type":"VEC3"},{"bufferView":7,"byteOffset":0,"componentType":5126,"count":1542,"type":"VEC2"},{"bufferView":8,"byteOffset":0,"componentType":5125,"count":126,"type":"SCALAR"},{"bufferView":9,"byteOffset":0,"componentType":5126,"count":126,"max":[37.49850082397461,23.828502655029297,59.16001892089844],"min":[-37.49850082397461,-23.828502655029297,-5.684341886080802e-14],"type":"VEC3"},{"bufferView":10,"byteOffset":0,"componentType":5126,"count":126,"type":"VEC3"},{"bufferView":11,"byteOffset":0,"componentType":5126,"count":126,"type":"VEC2"},{"bufferView":12,"byteOffset":0,"componentType":5125,"count":1593,"type":"SCALAR"},{"bufferView":13,"byteOffset":0,"componentType":5126,"count":1593,"max":[64.42990112304688,125.24635314941406,699.196044921875],"min":[-64.42990112304688,-125.24635314941406,1.1368683772161603e-13],"type":"VEC3"},{"bufferView":14,"byteOffset":0,"componentType":5126,"count":1593,"type":"VEC3"},{"bufferView":15,"byteOffset":0,"componentType":5126,"count":1593,"type":"VEC2"},{"bufferView":16,"byteOffset":0,"componentType":5125,"count":516,"type":"SCALAR"},{"bufferView":17,"byteOffset":0,"componentType":5126,"count":516,"max":[106.9729995727539,60.52199935913086,238.29299926757812],"min":[-103.63999938964844,-75.74800109863281,87.00700378417969],"type":"VEC3"},{"bufferView":18,"byteOffset":0,"componentType":5126,"count":516,"type":"VEC3"},{"bufferView":19,"byteOffset":0,"componentType":5126,"count":516,"type":"VEC2"},{"bufferView":20,"byteOffset":0,"componentType":5125,"count":210,"type":"SCALAR"},{"bufferView":21,"byteOffset":0,"componentType":5126,"count":210,"max":[32.867000579833984,19.753999710083008,142.2790069580078],"min":[-13.512999534606934,-15.428000450134277,-0.0010000000474974513],"type":"VEC3"},{"bufferView":22,"byteOffset":0,"componentType":5126,"count":210,"type":"VEC3"},{"bufferView":23,"byteOffset":0,"componentType":5126,"count":210,"type":"VEC2"},{"bufferView":24,"byteOffset":0,"componentType":5125,"count":2532,"type":"SCALAR"},{"bufferView":25,"byteOffset":0,"componentType":5126,"count":2532,"max":[2.2707409858703613,6.6216139793396,13.020581245422363],"min":[-2.2707409858703613,-6.6216139793396,6.814348826320916e-16],"type":"VEC3"},{"bufferView":26,"byteOffset":0,"componentType":5126,"count":2532,"type":"VEC3"},{"bufferView":27,"byteOffset":0,"componentType":5126,"count":2532,"type":"VEC2"},{"bufferView":28,"byteOffset":0,"componentType":5125,"count":780,"type":"SCALAR"},{"bufferView":29,"byteOffset":0,"componentType":5126,"count":780,"max":[0.0858691856265068,0.11801410466432571,0.13946688175201416],"min":[-0.0858691856265068,-0.11801410466432571,0],"type":"VEC3"},{"bufferView":30,"byteOffset":0,"componentType":5126,"count":780,"type":"VEC3"},{"bufferView":31,"byteOffset":0,"componentType":5125,"count":65118,"type":"SCALAR"},{"bufferView":32,"byteOffset":0,"componentType":5126,"count":65118,"max":[25.20995330810547,39.43730163574219,80.46711730957031],"min":[-25.20995330810547,-39.43730163574219,7.105427357601002e-15],"type":"VEC3"},{"bufferView":33,"byteOffset":0,"componentType":5126,"count":65118,"type":"VEC3"},{"bufferView":34,"byteOffset":0,"componentType":5126,"count":65118,"type":"VEC2"},{"bufferView":35,"byteOffset":0,"componentType":5125,"count":2400,"type":"SCALAR"},{"bufferView":36,"byteOffset":0,"componentType":5126,"count":2400,"max":[749.4349975585938,754.56396484375,421.8380126953125],"min":[-749.4349975585938,-754.56396484375,-2.842170943040401e-14],"type":"VEC3"},{"bufferView":37,"byteOffset":0,"componentType":5126,"count":2400,"type":"VEC3"},{"bufferView":38,"byteOffset":0,"componentType":5126,"count":2400,"type":"VEC2"}],"bufferViews":[{"buffer":0,"byteOffset":0,"byteLength":1824,"target":34963},{"buffer":0,"byteOffset":1824,"byteLength":5472,"target":34962},{"buffer":0,"byteOffset":7296,"byteLength":5472,"target":34962},{"buffer":0,"byteOffset":12768,"byteLength":3648,"target":34962},{"buffer":0,"byteOffset":16416,"byteLength":6168,"target":34963},{"buffer":0,"byteOffset":22584,"byteLength":18504,"target":34962},{"buffer":0,"byteOffset":41088,"byteLength":18504,"target":34962},{"buffer":0,"byteOffset":59592,"byteLength":12336,"target":34962},{"buffer":0,"byteOffset":71928,"byteLength":504,"target":34963},{"buffer":0,"byteOffset":72432,"byteLength":1512,"target":34962},{"buffer":0,"byteOffset":73944,"byteLength":1512,"target":34962},{"buffer":0,"byteOffset":75456,"byteLength":1008,"target":34962},{"buffer":0,"byteOffset":76464,"byteLength":6372,"target":34963},{"buffer":0,"byteOffset":82836,"byteLength":19116,"target":34962},{"buffer":0,"byteOffset":101952,"byteLength":19116,"target":34962},{"buffer":0,"byteOffset":121068,"byteLength":12744,"target":34962},{"buffer":0,"byteOffset":133812,"byteLength":2064,"target":34963},{"buffer":0,"byteOffset":135876,"byteLength":6192,"target":34962},{"buffer":0,"byteOffset":142068,"byteLength":6192,"target":34962},{"buffer":0,"byteOffset":148260,"byteLength":4128,"target":34962},{"buffer":0,"byteOffset":152388,"byteLength":840,"target":34963},{"buffer":0,"byteOffset":153228,"byteLength":2520,"target":34962},{"buffer":0,"byteOffset":155748,"byteLength":2520,"target":34962},{"buffer":0,"byteOffset":158268,"byteLength":1680,"target":34962},{"buffer":0,"byteOffset":159948,"byteLength":10128,"target":34963},{"buffer":0,"byteOffset":170076,"byteLength":30384,"target":34962},{"buffer":0,"byteOffset":200460,"byteLength":30384,"target":34962},{"buffer":0,"byteOffset":230844,"byteLength":20256,"target":34962},{"buffer":0,"byteOffset":251100,"byteLength":3120,"target":34963},{"buffer":0,"byteOffset":254220,"byteLength":9360,"target":34962},{"buffer":0,"byteOffset":263580,"byteLength":9360,"target":34962},{"buffer":0,"byteOffset":272940,"byteLength":260472,"target":34963},{"buffer":0,"byteOffset":533412,"byteLength":781416,"target":34962},{"buffer":0,"byteOffset":1314828,"byteLength":781416,"target":34962},{"buffer":0,"byteOffset":2096244,"byteLength":520944,"target":34962},{"buffer":0,"byteOffset":2617188,"byteLength":9600,"target":34963},{"buffer":0,"byteOffset":2626788,"byteLength":28800,"target":34962},{"buffer":0,"byteOffset":2655588,"byteLength":28800,"target":34962},{"buffer":0,"byteOffset":2684388,"byteLength":19200,"target":34962}],"textures":[{"sampler":0,"source":0},{"sampler":0,"source":1},{"sampler":0,"source":2}],"images":[{"uri":"849d2254-e6c4-4d90-9978-8bac7428135f.jpg","mimeType":"image/jpeg"},{"uri":"352a1021-a29d-449d-bb39-aacb3279a1b8.jpg","mimeType":"image/jpeg"},{"uri":"a05fdc90-353f-4ff1-b483-836ce3e2f147.jpg","mimeType":"image/jpeg"}],"samplers":[{"wrapS":10497,"wrapT":10497}],"scenes":[{"nodes":[0,5,10,11,12],"name":"Le corbeau et le renard"}],"buffers":[{"byteLength":2703588,"uri":"Lecorbeau et le renard.bin"}]}