{"asset":{"version":"2.0","generator":"VECTARY"},"scene":0,"nodes":[{"translation":[0.11044315930486956,-0.08126998088550462,0.10100148674322888],"scale":[0.003329694691241539,0.003329694691241539,0.003329694691241539],"rotation":[-0.6965826098208914,-0.7174177522658407,-0.00854334393758266,0.0033834454788881363],"name":"Floating Island 2","mesh":0},{"translation":[0.10895349891632634,-0.24452268207989794,-0.031386726294994165],"scale":[0.0982393655861791,0.0982393655861791,0.0982393655861791],"rotation":[-0.7071067811865475,0,0,0.7071067811865476],"name":"Grass Patch 1","children":[2,3,4]},{"translation":[-0.1565568447113037,-0.7400108575820923,2.161682367324829],"scale":[1,1,1],"rotation":[0.7071067811865475,0,0,0.7071067811865476],"name":"mesh_m0-PolyPaper9_-40210","mesh":1},{"translation":[-0.1565568447113037,-0.7400108575820923,2.161682367324829],"scale":[1,1,1],"rotation":[0.7071067811865475,0,0,0.7071067811865476],"name":"mesh_m1-PolyPaper9_-40212","mesh":2},{"translation":[-0.1565568447113037,-0.7400108575820923,2.161682367324829],"scale":[1,1,1],"rotation":[0.7071067811865475,0,0,0.7071067811865476],"name":"mesh_m2-PolyPaper10_-40442","mesh":3},{"translation":[0.10895349891632634,-0.24367576117448636,-0.031386726294994165],"scale":[0.08117105399700475,0.08117105399700475,0.08840849408581726],"rotation":[-0.7071067811865475,0,0,0.7071067811865476],"name":"Grass Patch","children":[6,7,8]},{"translation":[-0.1565568447113037,-0.7400108575820923,2.161682367324829],"scale":[1,1,1],"rotation":[0.7071067811865475,0,0,0.7071067811865476],"name":"mesh_m0-PolyPaper9_-40210","mesh":4},{"translation":[-0.1565568447113037,-0.7400108575820923,2.161682367324829],"scale":[1,1,1],"rotation":[0.7071067811865475,0,0,0.7071067811865476],"name":"mesh_m1-PolyPaper9_-40212","mesh":5},{"translation":[-0.1565568447113037,-0.7400108575820923,2.161682367324829],"scale":[1,1,1],"rotation":[0.7071067811865475,0,0,0.7071067811865476],"name":"mesh_m2-PolyPaper10_-40442","mesh":6},{"translation":[0,0,0],"scale":[2.061440511856084,2.061440511856084,2.061440511856084],"rotation":[-0.7071067811865475,0,0,0.7071067811865476],"name":"Tree","children":[10,11]},{"translation":[1.0243148505687714,-1.1800972875207665,0.856193482875824],"scale":[1,1,1],"rotation":[0.7071067811865475,0,0,0.7071067811865476],"name":"mesh_m0-PolyPaper10_-463270","mesh":7},{"translation":[1.0243148505687714,-1.1800972875207665,0.856193482875824],"scale":[1,1,1],"rotation":[0.7071067811865475,0,0,0.7071067811865476],"name":"mesh_m1-PolyPaper10_-466844","mesh":8},{"translation":[0.09954975553016696,0.024503850466477694,-0.08577809767388561],"scale":[0.0008435832546043006,0.0008435832546043006,0.0008435832546043006],"rotation":[-0.7071067811865475,0,0,0.7071067811865476],"name":"Tree","mesh":9},{"translation":[-0.028395125960565062,0.27059988474595426,-0.24503603055446058],"scale":[0.001,0.001,0.001],"rotation":[0.23603758945417985,0.24358501664727167,0.6755728109868285,0.6546403387242216],"name":"Trunk","mesh":10},{"translation":[0.09508457616720961,0.12494466050477608,-0.08619088806498997],"scale":[0.003185632259863315,0.003185632259863315,0.003185632259863315],"rotation":[-0.7071067811865475,0,0,0.7071067811865476],"name":"Raven","mesh":11},{"translation":[0.08139374735707414,0.025698233562829846,5.3290705182007515e-18],"scale":[0.015538508479468947,0.015538508479468947,0.015538508479468947],"rotation":[0.029822578062684044,0.706477610287612,0.7064776102876121,-0.02982257806268405],"name":"Fox","mesh":12},{"translation":[0.09585750693793028,0.1608719230334395,-0.06556530438937193],"scale":[0.00000764091681179162,0.00000764091681179162,0.000007639653299104764],"rotation":[-0.7071067811865475,0,0,0.7071067811865476],"name":"Cheese","mesh":13}],"materials":[{"pbrMetallicRoughness":{"baseColorFactor":[1,1,1,1],"baseColorTexture":{"index":0},"metallicFactor":0,"roughnessFactor":0.7358395138449315},"name":"Material 1","emissiveFactor":[0,0,0],"alphaMode":"OPAQUE","doubleSided":true},{"pbrMetallicRoughness":{"baseColorFactor":[0.6941176470588235,1,0.43137254901960786,1],"metallicFactor":0,"roughnessFactor":0.6},"name":"Material 2","emissiveFactor":[0,0,0],"alphaMode":"OPAQUE","doubleSided":false},{"pbrMetallicRoughness":{"baseColorFactor":[1,1,1,1],"metallicFactor":0,"roughnessFactor":0.6},"name":"Material 4","emissiveFactor":[0,0,0],"alphaMode":"OPAQUE","doubleSided":false},{"pbrMetallicRoughness":{"baseColorFactor":[0.24313725490196078,0.24705882352941178,0.3176470588235294,1],"metallicFactor":0,"roughnessFactor":1},"name":"Material 3","emissiveFactor":[0,0,0],"alphaMode":"OPAQUE","doubleSided":false},{"pbrMetallicRoughness":{"baseColorFactor":[0.25098039215686274,0.807843137254902,0.4823529411764706,1],"metallicFactor":0,"roughnessFactor":1},"name":"Material 5","emissiveFactor":[0,0,0],"alphaMode":"OPAQUE","doubleSided":false},{"pbrMetallicRoughness":{"baseColorFactor":[0.5,0.5,0.5,1],"baseColorTexture":{"index":1},"metallicFactor":0,"roughnessFactor":0.9699476628648295},"name":"Material 6","emissiveFactor":[0,0,0],"alphaMode":"OPAQUE","doubleSided":true},{"pbrMetallicRoughness":{"baseColorFactor":[1,1,1,1],"baseColorTexture":{"index":2},"metallicFactor":0,"roughnessFactor":0.9699476628648295},"name":"Material 7","emissiveFactor":[0,0,0],"alphaMode":"OPAQUE","doubleSided":true},{"pbrMetallicRoughness":{"baseColorFactor":[0.8706,1,0,1],"metallicFactor":0,"roughnessFactor":0.9124375732201923},"name":"Material 8","emissiveFactor":[0,0,0],"alphaMode":"OPAQUE","doubleSided":true}],"textures":[{"sampler":0,"source":0},{"sampler":0,"source":1},{"sampler":0,"source":2}],"images":[{"uri":"891afa16-075f-4cba-9ed7-d67c0f47d0c9.jpg","mimeType":"image/jpeg"},{"uri":"f5cc9078-659d-48cb-a729-980fe599d348.jpg","mimeType":"image/jpeg"},{"uri":"9997bc8b-1fd2-4d23-88b5-0080772f079f.jpg","mimeType":"image/jpeg"}],"samplers":[{"wrapS":10497,"wrapT":10497}],"meshes":[{"primitives":[{"mode":4,"attributes":{"POSITION":1,"NORMAL":2,"TEXCOORD_0":3},"material":0,"indices":0}]},{"primitives":[{"mode":4,"attributes":{"POSITION":5,"NORMAL":6},"material":1,"indices":4}]},{"primitives":[{"mode":4,"attributes":{"POSITION":8,"NORMAL":9},"material":1,"indices":7}]},{"primitives":[{"mode":4,"attributes":{"POSITION":11,"NORMAL":12},"material":1,"indices":10}]},{"primitives":[{"mode":4,"attributes":{"POSITION":5,"NORMAL":6},"material":1,"indices":4}]},{"primitives":[{"mode":4,"attributes":{"POSITION":8,"NORMAL":9},"material":1,"indices":7}]},{"primitives":[{"mode":4,"attributes":{"POSITION":11,"NORMAL":12},"material":1,"indices":10}]},{"primitives":[{"mode":4,"attributes":{"POSITION":14,"NORMAL":15},"material":2,"indices":13}]},{"primitives":[{"mode":4,"attributes":{"POSITION":17,"NORMAL":18},"material":2,"indices":16}]},{"primitives":[{"mode":4,"attributes":{"POSITION":20,"NORMAL":21,"TEXCOORD_0":22},"material":3,"indices":19}]},{"primitives":[{"mode":4,"attributes":{"POSITION":24,"NORMAL":25,"TEXCOORD_0":26},"material":4,"indices":23}]},{"primitives":[{"mode":4,"attributes":{"POSITION":28,"NORMAL":29,"TEXCOORD_0":30},"material":5,"indices":27}]},{"primitives":[{"mode":4,"attributes":{"POSITION":32,"NORMAL":33,"TEXCOORD_0":34},"material":6,"indices":31}]},{"primitives":[{"mode":4,"attributes":{"POSITION":36,"NORMAL":37,"TEXCOORD_0":38},"material":7,"indices":35}]}],"accessors":[{"bufferView":0,"byteOffset":0,"componentType":5125,"count":65118,"type":"SCALAR"},{"bufferView":1,"byteOffset":0,"componentType":5126,"count":65118,"max":[25.20995330810547,39.43730163574219,80.46711730957031],"min":[-25.20995330810547,-39.43730163574219,7.105427357601002e-15],"type":"VEC3"},{"bufferView":2,"byteOffset":0,"componentType":5126,"count":65118,"type":"VEC3"},{"bufferView":3,"byteOffset":0,"componentType":5126,"count":65118,"type":"VEC2"},{"bufferView":4,"byteOffset":0,"componentType":5125,"count":12360,"type":"SCALAR"},{"bufferView":5,"byteOffset":0,"componentType":5126,"count":12360,"max":[1.0484017133712769,0.8488706350326538,0.42173147201538086],"min":[-1.215710997581482,-0.014670804142951965,-1.765870451927185],"type":"VEC3"},{"bufferView":6,"byteOffset":0,"componentType":5126,"count":12360,"type":"VEC3"},{"bufferView":7,"byteOffset":0,"componentType":5125,"count":12360,"type":"SCALAR"},{"bufferView":8,"byteOffset":0,"componentType":5126,"count":12360,"max":[1.5470751523971558,0.8819552063941956,0.6816606521606445],"min":[-1.2339614629745483,0.018457485362887383,-2.161682367324829],"type":"VEC3"},{"bufferView":9,"byteOffset":0,"componentType":5126,"count":12360,"type":"VEC3"},{"bufferView":10,"byteOffset":0,"componentType":5125,"count":900,"type":"SCALAR"},{"bufferView":11,"byteOffset":0,"componentType":5126,"count":900,"max":[-0.29134780168533325,0.8756770491600037,0.43438518047332764],"min":[-0.817720890045166,0.10655884444713593,-0.16342008113861084],"type":"VEC3"},{"bufferView":12,"byteOffset":0,"componentType":5126,"count":900,"type":"VEC3"},{"bufferView":13,"byteOffset":0,"componentType":5125,"count":14292,"type":"SCALAR"},{"bufferView":14,"byteOffset":0,"componentType":5126,"count":14292,"max":[-0.8692277073860168,2.398378849029541,0.0381842739880085],"min":[-1.5103232860565186,1.5688896179199219,-0.856193482875824],"type":"VEC3"},{"bufferView":15,"byteOffset":0,"componentType":5126,"count":14292,"type":"VEC3"},{"bufferView":16,"byteOffset":0,"componentType":5125,"count":11394,"type":"SCALAR"},{"bufferView":17,"byteOffset":0,"componentType":5126,"count":11394,"max":[-0.5383064150810242,2.276489734649658,0.022971568629145622],"min":[-1.3599457740783691,1.5664896965026855,-0.7121703028678894],"type":"VEC3"},{"bufferView":18,"byteOffset":0,"componentType":5126,"count":11394,"type":"VEC3"},{"bufferView":19,"byteOffset":0,"componentType":5125,"count":210,"type":"SCALAR"},{"bufferView":20,"byteOffset":0,"componentType":5126,"count":210,"max":[40.600791931152344,17.590999603271484,213.40518188476562],"min":[-40.600791931152344,-17.590999603271484,-1.683115452566497e-15],"type":"VEC3"},{"bufferView":21,"byteOffset":0,"componentType":5126,"count":210,"type":"VEC3"},{"bufferView":22,"byteOffset":0,"componentType":5126,"count":210,"type":"VEC2"},{"bufferView":23,"byteOffset":0,"componentType":5125,"count":516,"type":"SCALAR"},{"bufferView":24,"byteOffset":0,"componentType":5126,"count":516,"max":[106.9729995727539,60.52199935913086,238.29299926757812],"min":[-103.63999938964844,-75.74800109863281,87.00700378417969],"type":"VEC3"},{"bufferView":25,"byteOffset":0,"componentType":5126,"count":516,"type":"VEC3"},{"bufferView":26,"byteOffset":0,"componentType":5126,"count":516,"type":"VEC2"},{"bufferView":27,"byteOffset":0,"componentType":5125,"count":2532,"type":"SCALAR"},{"bufferView":28,"byteOffset":0,"componentType":5126,"count":2532,"max":[2.2707409858703613,6.6216139793396,13.020581245422363],"min":[-2.2707409858703613,-6.6216139793396,6.814348826320916e-16],"type":"VEC3"},{"bufferView":29,"byteOffset":0,"componentType":5126,"count":2532,"type":"VEC3"},{"bufferView":30,"byteOffset":0,"componentType":5126,"count":2532,"type":"VEC2"},{"bufferView":31,"byteOffset":0,"componentType":5125,"count":2940,"type":"SCALAR"},{"bufferView":32,"byteOffset":0,"componentType":5126,"count":2940,"max":[0.6418910026550293,3.2178120613098145,3.8385050296783447],"min":[-0.6418910026550293,-3.2178120613098145,2.465190328815662e-32],"type":"VEC3"},{"bufferView":33,"byteOffset":0,"componentType":5126,"count":2940,"type":"VEC3"},{"bufferView":34,"byteOffset":0,"componentType":5126,"count":2940,"type":"VEC2"},{"bufferView":35,"byteOffset":0,"componentType":5125,"count":8025,"type":"SCALAR"},{"bufferView":36,"byteOffset":0,"componentType":5126,"count":8025,"max":[323.58013916015625,334.2017822265625,494.9880065917969],"min":[-323.58013916015625,-334.2017822265625,-2.168404344971009e-19],"type":"VEC3"},{"bufferView":37,"byteOffset":0,"componentType":5126,"count":8025,"type":"VEC3"},{"bufferView":38,"byteOffset":0,"componentType":5126,"count":8025,"type":"VEC2"}],"bufferViews":[{"buffer":0,"byteOffset":0,"byteLength":260472,"target":34963},{"buffer":0,"byteOffset":260472,"byteLength":781416,"target":34962},{"buffer":0,"byteOffset":1041888,"byteLength":781416,"target":34962},{"buffer":0,"byteOffset":1823304,"byteLength":520944,"target":34962},{"buffer":0,"byteOffset":2344248,"byteLength":49440,"target":34963},{"buffer":0,"byteOffset":2393688,"byteLength":148320,"target":34962},{"buffer":0,"byteOffset":2542008,"byteLength":148320,"target":34962},{"buffer":0,"byteOffset":2690328,"byteLength":49440,"target":34963},{"buffer":0,"byteOffset":2739768,"byteLength":148320,"target":34962},{"buffer":0,"byteOffset":2888088,"byteLength":148320,"target":34962},{"buffer":0,"byteOffset":3036408,"byteLength":3600,"target":34963},{"buffer":0,"byteOffset":3040008,"byteLength":10800,"target":34962},{"buffer":0,"byteOffset":3050808,"byteLength":10800,"target":34962},{"buffer":0,"byteOffset":3061608,"byteLength":57168,"target":34963},{"buffer":0,"byteOffset":3118776,"byteLength":171504,"target":34962},{"buffer":0,"byteOffset":3290280,"byteLength":171504,"target":34962},{"buffer":0,"byteOffset":3461784,"byteLength":45576,"target":34963},{"buffer":0,"byteOffset":3507360,"byteLength":136728,"target":34962},{"buffer":0,"byteOffset":3644088,"byteLength":136728,"target":34962},{"buffer":0,"byteOffset":3780816,"byteLength":840,"target":34963},{"buffer":0,"byteOffset":3781656,"byteLength":2520,"target":34962},{"buffer":0,"byteOffset":3784176,"byteLength":2520,"target":34962},{"buffer":0,"byteOffset":3786696,"byteLength":1680,"target":34962},{"buffer":0,"byteOffset":3788376,"byteLength":2064,"target":34963},{"buffer":0,"byteOffset":3790440,"byteLength":6192,"target":34962},{"buffer":0,"byteOffset":3796632,"byteLength":6192,"target":34962},{"buffer":0,"byteOffset":3802824,"byteLength":4128,"target":34962},{"buffer":0,"byteOffset":3806952,"byteLength":10128,"target":34963},{"buffer":0,"byteOffset":3817080,"byteLength":30384,"target":34962},{"buffer":0,"byteOffset":3847464,"byteLength":30384,"target":34962},{"buffer":0,"byteOffset":3877848,"byteLength":20256,"target":34962},{"buffer":0,"byteOffset":3898104,"byteLength":11760,"target":34963},{"buffer":0,"byteOffset":3909864,"byteLength":35280,"target":34962},{"buffer":0,"byteOffset":3945144,"byteLength":35280,"target":34962},{"buffer":0,"byteOffset":3980424,"byteLength":23520,"target":34962},{"buffer":0,"byteOffset":4003944,"byteLength":32100,"target":34963},{"buffer":0,"byteOffset":4036044,"byteLength":96300,"target":34962},{"buffer":0,"byteOffset":4132344,"byteLength":96300,"target":34962},{"buffer":0,"byteOffset":4228644,"byteLength":64200,"target":34962}],"scenes":[{"nodes":[0,1,5,9,12,13,14,15,16],"name":"Project Name"}],"buffers":[{"byteLength":4292844,"uri":"ProjectName.bin"}]}